<svg width="24" height="24" viewBox="0 0 24 24" fill="none" xmlns="http://www.w3.org/2000/svg">
<g clip-path="url(#clip0_1_488)">
<g filter="url(#filter0_ii_1_488)">
<path fill-rule="evenodd" clip-rule="evenodd" d="M10.9787 0.121155C8.45576 0.121155 6.41028 2.1666 6.41028 4.68979V11.9996V19.3094C6.41028 21.8326 8.45576 23.878 10.9787 23.878C13.5019 23.878 15.5474 21.8326 15.5474 19.3094V16.5682H18.517C21.0402 16.5682 23.0857 14.5228 23.0857 11.9996C23.0857 9.4764 21.0402 7.43096 18.517 7.43096H15.5474V4.68979C15.5474 2.1666 13.5019 0.121155 10.9787 0.121155Z" fill="#4DBFFF"/>
</g>
<g filter="url(#filter1_f_1_488)">
<mask id="mask0_1_488" style="mask-type:alpha" maskUnits="userSpaceOnUse" x="6" y="0" width="10" height="24">
<path d="M10.9789 0.121155H10.9789C8.45572 0.121155 6.41028 2.16659 6.41028 4.68977V19.3093C6.41028 21.8325 8.45572 23.878 10.9789 23.878H10.9789C13.5021 23.878 15.5475 21.8325 15.5475 19.3093V4.68977C15.5475 2.16659 13.5021 0.121155 10.9789 0.121155Z" fill="#4DBFFF"/>
</mask>
<g mask="url(#mask0_1_488)">
<path opacity="0.26" d="M0.924561 5.83356L0.922618 5.83194C0.676241 12.4364 5.93875 17.9372 12.5477 17.9832L19.6032 18.0324L19.6206 18.0507C20.4064 18.0957 21.0288 18.7109 21.0288 19.4633C21.0288 19.4876 21.0281 19.5118 21.0268 19.5358L21.0288 19.5378C21.1113 12.8155 15.6846 7.3217 8.96184 7.3217H2.72321L2.6951 7.2985C2.60687 7.31375 2.5159 7.3217 2.4231 7.3217C1.5943 7.3217 0.922595 6.68805 0.922595 5.90643C0.922595 5.882 0.923258 5.8577 0.924561 5.83356Z" fill="#08260D"/>
</g>
</g>
<g filter="url(#filter2_ii_1_488)">
<path d="M0.924561 5.14826L0.922618 5.14664C0.676241 11.7511 5.93875 17.2519 12.5477 17.2979L19.6032 17.3471L19.6206 17.3654C20.4064 17.4104 21.0288 18.0257 21.0288 18.778C21.0288 18.8023 21.0281 18.8265 21.0268 18.8505L21.0288 18.8525C21.1113 12.1302 15.6846 6.63642 8.96184 6.63642H2.72321L2.6951 6.6132C2.60687 6.62844 2.5159 6.63642 2.4231 6.63642C1.5943 6.63642 0.922595 6.00277 0.922595 5.22113C0.922595 5.19669 0.923258 5.1724 0.924561 5.14826Z" fill="#52F36C"/>
</g>
</g>
<defs>
<filter id="filter0_ii_1_488" x="-0.750031" y="-7.03916" width="30.996" height="40.4642" filterUnits="userSpaceOnUse" color-interpolation-filters="sRGB">
<feFlood flood-opacity="0" result="BackgroundImageFix"/>
<feBlend mode="normal" in="SourceGraphic" in2="BackgroundImageFix" result="shape"/>
<feColorMatrix in="SourceAlpha" type="matrix" values="0 0 0 0 0 0 0 0 0 0 0 0 0 0 0 0 0 0 127 0" result="hardAlpha"/>
<feOffset dx="-7.16031" dy="9.54709"/>
<feGaussianBlur stdDeviation="9.54709"/>
<feComposite in2="hardAlpha" operator="arithmetic" k2="-1" k3="1"/>
<feColorMatrix type="matrix" values="0 0 0 0 1 0 0 0 0 1 0 0 0 0 1 0 0 0 0.5 0"/>
<feBlend mode="normal" in2="shape" result="effect1_innerShadow_1_488"/>
<feColorMatrix in="SourceAlpha" type="matrix" values="0 0 0 0 0 0 0 0 0 0 0 0 0 0 0 0 0 0 127 0" result="hardAlpha"/>
<feOffset dx="7.16031" dy="-7.16031"/>
<feGaussianBlur stdDeviation="9.54709"/>
<feComposite in2="hardAlpha" operator="arithmetic" k2="-1" k3="1"/>
<feColorMatrix type="matrix" values="0 0 0 0 0 0 0 0 0 0 0 0 0 0 0 0 0 0 0.25 0"/>
<feBlend mode="normal" in2="effect1_innerShadow_1_488" result="effect2_innerShadow_1_488"/>
</filter>
<filter id="filter1_f_1_488" x="-3.1368" y="-3.71514" width="28.2314" height="32.8001" filterUnits="userSpaceOnUse" color-interpolation-filters="sRGB">
<feFlood flood-opacity="0" result="BackgroundImageFix"/>
<feBlend mode="normal" in="SourceGraphic" in2="BackgroundImageFix" result="shape"/>
<feGaussianBlur stdDeviation="4.77354" result="effect1_foregroundBlur_1_488"/>
</filter>
<filter id="filter2_ii_1_488" x="0.914307" y="-4.40045" width="20.1155" height="32.8001" filterUnits="userSpaceOnUse" color-interpolation-filters="sRGB">
<feFlood flood-opacity="0" result="BackgroundImageFix"/>
<feBlend mode="normal" in="SourceGraphic" in2="BackgroundImageFix" result="shape"/>
<feColorMatrix in="SourceAlpha" type="matrix" values="0 0 0 0 0 0 0 0 0 0 0 0 0 0 0 0 0 0 127 0" result="hardAlpha"/>
<feOffset dy="9.54709"/>
<feGaussianBlur stdDeviation="4.77354"/>
<feComposite in2="hardAlpha" operator="arithmetic" k2="-1" k3="1"/>
<feColorMatrix type="matrix" values="0 0 0 0 1 0 0 0 0 1 0 0 0 0 1 0 0 0 0.5 0"/>
<feBlend mode="normal" in2="shape" result="effect1_innerShadow_1_488"/>
<feColorMatrix in="SourceAlpha" type="matrix" values="0 0 0 0 0 0 0 0 0 0 0 0 0 0 0 0 0 0 127 0" result="hardAlpha"/>
<feOffset dy="-9.54709"/>
<feGaussianBlur stdDeviation="10.7405"/>
<feComposite in2="hardAlpha" operator="arithmetic" k2="-1" k3="1"/>
<feColorMatrix type="matrix" values="0 0 0 0 0 0 0 0 0 0 0 0 0 0 0 0 0 0 0.25 0"/>
<feBlend mode="normal" in2="effect1_innerShadow_1_488" result="effect2_innerShadow_1_488"/>
</filter>
<clipPath id="clip0_1_488">
<rect width="24" height="24" fill="white"/>
</clipPath>
</defs>
</svg>
